<svg width="884" height="385" viewBox="0 0 884 385" fill="none" xmlns="http://www.w3.org/2000/svg">
<path d="M730.891 349.988C730.891 350.719 730.891 351.408 730.891 352.139C726.846 364.575 717.767 379.378 700.339 379.378C685.02 379.378 672.541 368.104 668.625 352.139C668.625 351.666 668.625 350.246 668.625 349.772" fill="#D79F01"></path>
<path d="M731.321 349.59L699.823 368.093L668.625 349.59L699.995 325.578L731.321 349.59Z" fill="#FFC113"></path>
<path d="M801.326 218.813C785.061 218.805 769.157 223.621 755.629 232.651C742.1 241.682 731.553 254.522 725.323 269.547C719.092 284.573 717.458 301.108 720.626 317.063C723.794 333.017 731.622 347.673 743.121 359.178C754.62 370.683 769.272 378.519 785.225 381.695C801.178 384.872 817.714 383.246 832.743 377.023C847.771 370.801 860.617 360.261 869.654 346.737C878.692 333.213 883.516 317.312 883.516 301.046C883.516 279.244 874.858 258.334 859.446 242.914C844.034 227.494 823.128 218.825 801.326 218.813ZM801.326 373.726C786.858 373.726 772.715 369.436 760.685 361.397C748.655 353.359 739.279 341.934 733.742 328.567C728.205 315.2 726.756 300.492 729.579 286.301C732.402 272.111 739.369 259.076 749.599 248.846C759.83 238.615 772.865 231.648 787.055 228.825C801.245 226.003 815.954 227.451 829.321 232.988C842.688 238.525 854.113 247.901 862.151 259.931C870.189 271.961 874.479 286.104 874.479 300.573C874.445 319.952 866.723 338.525 853.008 352.216C839.293 365.907 820.705 373.597 801.326 373.597V373.726Z" fill="#FFC113"></path>
<path d="M599.393 218.813C583.129 218.813 567.23 223.636 553.707 232.672C540.184 241.708 529.644 254.551 523.42 269.577C517.196 284.603 515.567 301.137 518.74 317.089C521.913 333.041 529.745 347.693 541.246 359.193C552.746 370.694 567.398 378.526 583.35 381.699C599.302 384.872 615.836 383.243 630.862 377.019C645.888 370.795 658.731 360.255 667.767 346.732C676.803 333.209 681.625 317.31 681.625 301.046C681.631 290.246 679.508 279.55 675.377 269.57C671.247 259.591 665.19 250.523 657.553 242.886C649.915 235.249 640.848 229.192 630.869 225.062C620.889 220.931 610.193 218.808 599.393 218.813ZM599.393 373.726C584.925 373.726 570.781 369.436 558.751 361.397C546.721 353.359 537.345 341.934 531.808 328.567C526.271 315.2 524.823 300.492 527.645 286.301C530.468 272.111 537.435 259.076 547.666 248.846C557.896 238.615 570.931 231.648 585.121 228.825C599.312 226.003 614.02 227.451 627.387 232.988C640.754 238.525 652.179 247.901 660.217 259.931C668.255 271.961 672.546 286.104 672.546 300.573C672.512 319.952 664.789 338.525 651.074 352.216C637.359 365.907 618.772 373.597 599.393 373.597V373.726Z" fill="#FFC113"></path>
<path d="M624.011 332.124C637.13 332.124 647.764 321.489 647.764 308.37C647.764 295.252 637.13 284.617 624.011 284.617C610.892 284.617 600.258 295.252 600.258 308.37C600.258 321.489 610.892 332.124 624.011 332.124Z" fill="#FFC113"></path>
<path d="M775.995 332.124C789.114 332.124 799.749 321.489 799.749 308.37C799.749 295.252 789.114 284.617 775.995 284.617C762.877 284.617 752.242 295.252 752.242 308.37C752.242 321.489 762.877 332.124 775.995 332.124Z" fill="#FFC113"></path>
<path d="M789.568 58.9639C789.568 58.9639 712.112 116.626 699.547 154.02L738.275 147.006C738.275 147.006 706.389 199.159 699.547 235.004C699.547 235.004 764.094 136.85 789.568 115.033L744.385 121.273L789.568 58.9639Z" fill="#FFC113"></path>
<path d="M718.943 308.369C699.622 290.855 681.463 308.369 681.463 308.369L679.828 317.578C679.828 317.578 701.86 297.052 720.622 317.578L718.943 308.369Z" fill="#FFC113"></path>
<path d="M114.726 143.687C117.583 143.59 120.418 144.222 122.962 145.525C125.507 146.828 127.678 148.757 129.27 151.131C129.27 151.432 129.572 151.432 129.572 151.691C142.997 170.581 141.879 173.206 141.018 175.444V175.702C123.805 204.318 91.2739 204.318 82.1082 204.318C33.7842 204.318 12.9141 153.971 12.9141 104.528V103.969C12.9141 54.4831 33.7842 4.17969 82.1082 4.17969C91.2739 4.17969 123.848 4.17969 141.018 32.7524V33.0536C141.879 35.3343 142.997 37.9162 129.572 56.7639C129.572 57.0651 129.27 57.065 129.27 57.3662C127.673 59.7326 125.5 61.6536 122.956 62.9484C120.411 64.2432 117.579 64.8692 114.726 64.7676C114.425 64.5094 114.123 63.9069 113.564 63.6487C106.679 57.3662 89.5526 41.6168 75.2663 51.3419C53.7507 66.1876 60.6787 146.01 75.2663 155.693C90.4132 166.278 109.003 148.851 114.726 143.687Z" fill="#FFC113"></path>
<path d="M242.725 200.32C241.607 203.16 236.185 203.461 234.722 203.461C222.716 203.461 207.87 204.322 195.993 204.322C191.131 202.902 191.992 194.037 190.83 181.429L189.108 97.9485L146.12 13.1341C143.813 9.96295 142.161 6.36452 141.258 2.54838C147.583 -1.1523 166.431 0.267733 179.986 0.267733C184.289 0.267733 197.198 -1.45347 199.995 4.01149L213.722 47.7312L232.871 1.68777H235.711L271.169 1.98902C275.472 1.98902 287.177 0.267759 284.638 7.15275L240.488 98.5079L242.725 200.32Z" fill="#FFC113"></path>
<path d="M303.42 201.427C302.861 201.169 300.58 200.609 300.58 199.447C300.58 191.745 301.441 183.698 301.441 176.297V171.994C301.139 170.014 299.978 154.566 299.978 152.543V137.913C299.978 135.632 298.859 119.065 298.859 117.043V98.1951C298.859 96.1726 297.697 81.8863 297.439 79.8639C297.568 78.0589 297.568 76.2469 297.439 74.4419C297.439 74.4419 297.439 73.5812 297.138 73.3231C297.697 53.5717 295.416 34.1217 295.416 14.1122C295.416 11.8315 294.556 5.80719 296.578 3.52654C320.03 2.66591 346.623 0.127034 372.356 1.80525C418.959 4.98956 426.661 70.9994 405.49 92.1707L396.884 99.9164C396.583 99.9164 396.023 100.174 396.023 100.476V100.734C396.023 101.595 403.166 105.898 404.027 106.758C404.888 107.619 414.053 115.623 415.473 117.344C437.505 143.163 431.18 198.544 393.958 203.708C384.474 204.973 374.909 205.534 365.342 205.386L313.145 202.46C309.872 202.541 306.603 202.194 303.42 201.427ZM346.451 77.368H350.453C362.459 77.368 369.602 73.9255 372.743 62.4792C372.743 62.178 373.346 59.8974 373.346 59.6392V46.1704C373.346 37.0478 365.901 33.261 357.596 33.261H355.014C354.154 33.261 344.429 34.423 343.568 34.423H342.88L342.019 34.9823V39.2854C342.019 50.4304 344.042 60.801 345.16 72.1613V76.1631L346.451 77.368ZM366.762 170.272H367.02C379.026 170.272 385.351 159.429 385.351 149.101C385.351 141.7 380.489 127.585 372.442 124.53C369.404 124.082 366.345 123.795 363.276 123.67C358.414 123.67 354.111 124.229 349.248 124.229L350.97 166.83C351.271 167.992 356.133 167.992 356.435 167.992C357.855 168.551 363.836 169.412 365.041 169.713C365.471 169.713 366.332 170.272 366.633 170.272H366.762Z" fill="#FFC113"></path>
<path d="M450.101 202.043C448.681 202.043 443.818 201.742 443.818 198.902C444.679 129.105 440.935 32.199 439.816 12.1895V7.88638C440.075 1.30261 450.402 3.02384 454.662 3.02384L484.139 2.72266L540.079 4.44388C547.523 6.16512 547.523 18.4721 547.523 24.4534V26.1746C547.523 35.8997 550.105 47.346 535.518 47.346C528.633 47.346 521.231 46.1842 490.335 46.7866V48.4648C490.335 54.1879 491.196 73.638 491.755 77.3817L527.213 76.7794C535.217 80.2218 534.915 85.3855 533.797 109.096C533.797 111.376 533.495 113.7 533.495 116.239C533.388 117.826 533.009 119.384 532.376 120.843L531.215 121.101C530.354 121.403 518.305 121.101 514.648 121.101C514.648 121.101 510.904 121.403 509.785 121.403C505.181 121.403 500.921 121.704 496.316 121.704H492.616V122.263C492.616 123.124 492.917 123.984 492.056 124.845V156.301C502.341 156.301 518.908 156.559 542.962 157.162C550.364 160.862 550.364 180.011 550.364 191.587V197.31C548.642 201.871 534.356 202.43 529.235 202.43L450.101 202.043Z" fill="#FFC113"></path>
<path d="M615.38 133.615L616.801 201.949L579.923 202.809C576.644 202.851 573.374 202.46 570.198 201.648C569.595 201.389 567.315 200.83 567.315 199.97C567.056 197.646 565.593 142.781 565.593 98.4589C565.593 96.4364 564.475 82.1501 564.173 80.1277C564.324 78.3235 564.324 76.5099 564.173 74.7057C564.173 74.7057 564.173 73.845 563.872 73.5868C564.475 53.8355 562.194 34.3855 562.194 14.376C562.194 12.0953 561.333 6.07098 563.313 3.79033C586.765 2.92971 627.644 0.950263 653.377 2.37029C703.422 5.25338 711.727 103.881 661.381 109.045C665.985 117.909 667.965 128.193 691.503 190.804C691.503 191.105 691.804 191.363 691.804 191.664C692.923 194.246 694.386 198.506 692.923 200.529C685.22 203.67 670.934 203.111 661.467 203.111C658.067 203.111 646.32 204.832 644.254 199.367C632.249 168.557 627.085 159.692 615.38 133.615ZM613.659 80.9882H623.083C634.788 79.8694 651.398 86.4533 648.256 53.5344C647.095 40.6251 633.927 39.8504 625.665 39.8504H623.083C622.222 39.8504 613.917 40.9693 613.057 40.9693H612.497L611.637 41.5287V45.8318C611.344 55.8806 611.631 65.938 612.497 75.9536V79.9555L613.659 80.9882Z" fill="#FFC113"></path>
<path d="M95.9595 379.928C94.7977 383.241 90.7958 381.348 87.3533 381.348H82.1035C78.9308 381.61 75.7368 381.289 72.6797 380.401C72.2063 380.186 70.5711 379.713 70.313 378.766C66.5262 363.877 46.947 315.983 42.4718 304.451C41.3099 321.19 44.8385 365.297 42.4718 381.907C41.0518 383.542 41.0518 383.801 40.3633 383.542C39.6748 383.284 39.2014 383.327 37.9965 383.327C35.1565 383.327 19.5792 384.016 16.7822 384.274C14.1573 383.542 0.946685 383.327 0.946685 379.325C0.999768 378.823 1.16127 378.339 1.42003 377.905V370.289C1.49872 365.565 1.34075 360.84 0.946685 356.132V288.874C1.42003 283.194 1.42003 280.267 1.42003 274.501C1.42003 262.194 0 250.877 0 238.613V228.716C0 221.659 0 219.034 9.9402 219.034H11.5324C12.0057 219.034 12.6942 219.507 13.1675 219.507H32.5316C35.3286 219.507 39.3735 219.508 40.7505 221.616C54.9078 242.83 67.1717 277.04 83.2223 306.56C96.6911 281.989 111.063 251.824 126.253 224.198C127.458 222.089 130.987 222.089 133.827 222.089H134.515L154.568 221.143C155.041 221.143 155.773 220.669 156.246 220.669H157.666C167.563 220.669 167.563 223.251 167.563 230.351L166.746 357.379C166.352 362.088 166.194 366.813 166.273 371.537V379.11C166.014 387.716 154.224 384.274 133.698 384.532C130.169 384.532 129.395 385.221 127.329 382.639C125.006 366.115 127.803 320.588 126.641 303.849C119.541 321.879 105.168 352.087 95.9595 379.928Z" fill="#FFC113"></path>
<path d="M266.556 219.044C268.664 220.937 269.138 225.886 269.611 227.65C273.914 244.174 276.238 260.225 280.713 276.49V277.437C280.713 277.91 281.875 281.439 281.875 281.74L284.371 297.145L288.416 312.723C288.889 314.358 291.471 328.042 291.944 329.935L303.261 380.626C303.52 381.572 301.626 382.046 301.153 382.304C296.491 383.203 291.736 383.521 286.996 383.251H282.133C278.561 383.251 263.931 382.777 261.822 379.464L261.134 376.409C259.24 368.835 257.562 361.305 255.927 353.774L232.819 354.463L225.504 353.989L219.824 378.905C217.715 382.218 203.085 382.691 199.556 382.691H194.608C189.553 382.964 184.484 382.646 179.504 381.745C179.03 381.486 177.137 381.013 177.395 380.109C179.03 373.698 179.504 367.2 199.556 281.482C199.556 281.009 200.718 277.48 200.718 277.179V276.232C205.021 259.966 207.56 243.916 211.82 227.392C212.293 225.498 212.767 220.55 214.875 218.786C219.36 219.184 223.874 219.112 228.344 218.57L266.556 219.044ZM231.614 324.04L249.558 323.782L240.952 280.75C237.51 295.252 234.713 309.624 231.614 324.04Z" fill="#FFC113"></path>
<path d="M375.946 217.145L377.624 217.403C379.517 218.565 379.517 232.249 379.259 235.562V240.295C379.38 244.24 379.135 248.187 378.528 252.086C378.528 252.301 378.528 254.194 377.581 254.194C374.052 254.194 370.524 254.883 367.21 254.668L365.317 254.453C364.37 254.668 357.313 255.141 356.366 255.141H355.678C356.582 293.353 355.678 347.83 357.313 374.251C357.313 379.243 356.366 380.19 351.891 381.352C350.686 381.825 346.943 382.987 346.684 382.987H342.381C339.541 382.987 337.648 382.513 335.066 382.513C330.074 382.513 325.126 383.46 319.962 383.46C318.757 383.46 314.755 383.245 314.755 380.878C315.229 340.773 314.54 288.404 313.809 254.668C307.125 254.939 300.432 254.867 293.756 254.453C292.594 254.453 289.969 254.883 288.808 253.506C289.281 245.717 288.334 237.929 288.592 230.14C288.808 227.085 288.119 216.456 290.443 216.671C323.835 218.565 339.412 216.456 375.946 217.145Z" fill="#FFC113"></path>
<path d="M507.837 377.346V380.401C506.675 383.714 490.624 384.188 487.311 384.188H482.276C477.379 384.452 472.468 384.134 467.646 383.241C467.172 382.983 465.279 382.509 465.279 381.563C465.279 375.194 466.011 368.653 463.859 313.659V311.981C448.067 312.239 442.645 312.713 432.747 313.186C432.747 328.032 432.747 341.931 432.747 351.914C432.747 355.701 433.909 370.547 433.909 373.43C433.909 378.421 432.963 379.368 428.487 380.53C427.282 381.003 423.539 382.165 423.281 382.165H418.977C416.137 382.165 416.137 381.692 413.556 381.692C408.564 381.692 402.453 382.638 397.247 382.638C396.085 382.638 392.083 382.423 392.083 380.056C392.771 322.481 389.716 244.896 388.77 228.372V224.843C388.77 219.421 397.376 220.841 401.033 220.841L426.035 220.583H428.401C429.419 226.199 430.051 231.878 430.295 237.58L431.93 279.579L462.611 279.105V278.159C462.611 278.159 462.611 277.427 462.353 277.212C462.826 260.946 460.933 244.896 460.933 228.372C460.933 226.478 460.244 221.53 461.88 219.765C470.142 220.497 478.403 218.345 486.665 218.345C489.721 218.345 502.243 216.925 502.243 221.444C502.415 272.608 506.202 324.03 507.837 377.346Z" fill="#FFC113"></path>
</svg>