<svg width="367" height="325" viewBox="0 0 367 325" fill="none" xmlns="http://www.w3.org/2000/svg">
<path d="M213.731 291.024C213.731 291.755 213.731 292.444 213.731 293.175C209.686 305.611 200.606 320.414 183.179 320.414C167.86 320.414 155.381 309.14 151.465 293.175C151.465 292.702 151.465 291.282 151.465 290.809" fill="#D79F01"/>
<path d="M214.161 290.626L182.662 309.129L151.465 290.626L182.835 266.614L214.161 290.626Z" fill="#FFC113"/>
<path d="M284.166 159.85C267.9 159.841 251.997 164.657 238.469 173.687C224.94 182.718 214.393 195.558 208.163 210.583C201.932 225.609 200.297 242.144 203.465 258.099C206.634 274.053 214.462 288.71 225.961 300.214C237.46 311.719 252.112 319.555 268.065 322.732C284.017 325.908 300.554 324.282 315.582 318.059C330.611 311.837 343.456 301.297 352.494 287.773C361.532 274.249 366.356 258.348 366.356 242.082C366.356 220.28 357.698 199.371 342.286 183.95C326.873 168.53 305.968 159.861 284.166 159.85ZM284.166 314.762C269.698 314.762 255.555 310.472 243.525 302.434C231.495 294.395 222.119 282.97 216.582 269.603C211.045 256.236 209.596 241.528 212.419 227.337C215.241 213.147 222.209 200.113 232.439 189.882C242.67 179.651 255.705 172.684 269.895 169.862C284.085 167.039 298.794 168.488 312.161 174.024C325.528 179.561 336.953 188.937 344.991 200.967C353.029 212.997 357.319 227.141 357.319 241.609C357.285 260.988 349.563 279.562 335.848 293.252C322.133 306.943 303.545 314.633 284.166 314.633V314.762Z" fill="#FFC113"/>
<path d="M82.2327 159.85C65.9686 159.85 50.0697 164.673 36.5466 173.708C23.0235 182.744 12.4836 195.587 6.25963 210.613C0.0356372 225.639 -1.59285 242.174 1.58011 258.125C4.75307 274.077 12.585 288.729 24.0854 300.23C35.5858 311.73 50.2383 319.562 66.1899 322.735C82.1414 325.908 98.6757 324.279 113.702 318.055C128.728 311.831 141.571 301.291 150.607 287.768C159.642 274.245 164.465 258.346 164.465 242.082C164.471 231.282 162.348 220.586 158.217 210.607C154.087 200.627 148.03 191.56 140.392 183.922C132.755 176.285 123.688 170.228 113.708 166.098C103.729 161.967 93.0332 159.844 82.2327 159.85ZM82.2327 314.762C67.7644 314.762 53.6209 310.472 41.591 302.433C29.561 294.395 20.1848 282.97 14.648 269.603C9.11126 256.236 7.66261 241.528 10.4852 227.337C13.3079 213.147 20.275 200.113 30.5056 189.882C40.7362 179.651 53.7709 172.684 67.9612 169.862C82.1515 167.039 96.8601 168.488 110.227 174.024C123.594 179.561 135.019 188.937 143.057 200.967C151.095 212.997 155.386 227.141 155.386 241.609C155.351 260.988 147.629 279.562 133.914 293.252C120.199 306.943 101.612 314.633 82.2327 314.633V314.762Z" fill="#FFC113"/>
<path d="M106.851 273.16C119.969 273.16 130.604 262.525 130.604 249.406C130.604 236.288 119.969 225.653 106.851 225.653C93.7323 225.653 83.0977 236.288 83.0977 249.406C83.0977 262.525 93.7323 273.16 106.851 273.16Z" fill="#FFC113"/>
<path d="M258.835 273.16C271.954 273.16 282.588 262.525 282.588 249.406C282.588 236.288 271.954 225.653 258.835 225.653C245.717 225.653 235.082 236.288 235.082 249.406C235.082 262.525 245.717 273.16 258.835 273.16Z" fill="#FFC113"/>
<path d="M272.408 0C272.408 0 194.952 57.6618 182.387 95.0559L221.115 88.0418C221.115 88.0418 189.229 140.196 182.387 176.041C182.387 176.041 246.933 77.8864 272.408 56.0696L227.225 62.3092L272.408 0Z" fill="#FFC113"/>
<path d="M201.783 249.405C182.462 231.891 164.303 249.405 164.303 249.405L162.668 258.614C162.668 258.614 184.7 238.088 203.462 258.614L201.783 249.405Z" fill="#FFC113"/>
</svg>
